<mxfile host="app.diagrams.net" modified="2024-02-21T22:49:14.110Z" agent="Mozilla/5.0 (Windows NT 10.0; Win64; x64) AppleWebKit/537.36 (KHTML, like Gecko) Chrome/121.0.0.0 Safari/537.36" etag="FT4i8mBm2wV5mYQJoS10" version="23.1.5" type="device">
  <diagram name="Page-1" id="6nozX3hrjuDA9N09V-C1">
    <mxGraphModel dx="1434" dy="738" grid="1" gridSize="10" guides="1" tooltips="1" connect="1" arrows="1" fold="1" page="1" pageScale="1" pageWidth="827" pageHeight="1169" math="0" shadow="0">
      <root>
        <mxCell id="0" />
        <mxCell id="1" parent="0" />
        <mxCell id="IAmljEJbCYCv3zX4TJSq-3" value="" style="edgeStyle=orthogonalEdgeStyle;rounded=0;orthogonalLoop=1;jettySize=auto;html=1;" edge="1" parent="1" source="IAmljEJbCYCv3zX4TJSq-1" target="IAmljEJbCYCv3zX4TJSq-2">
          <mxGeometry relative="1" as="geometry" />
        </mxCell>
        <mxCell id="IAmljEJbCYCv3zX4TJSq-1" value="Start" style="triangle;whiteSpace=wrap;html=1;rotation=90;" vertex="1" parent="1">
          <mxGeometry x="390" y="30" width="60" height="80" as="geometry" />
        </mxCell>
        <mxCell id="IAmljEJbCYCv3zX4TJSq-6" value="" style="edgeStyle=orthogonalEdgeStyle;rounded=0;orthogonalLoop=1;jettySize=auto;html=1;" edge="1" parent="1" source="IAmljEJbCYCv3zX4TJSq-2" target="IAmljEJbCYCv3zX4TJSq-5">
          <mxGeometry relative="1" as="geometry" />
        </mxCell>
        <mxCell id="IAmljEJbCYCv3zX4TJSq-2" value="Solar Charger" style="whiteSpace=wrap;html=1;aspect=fixed;" vertex="1" parent="1">
          <mxGeometry x="380" y="130" width="80" height="80" as="geometry" />
        </mxCell>
        <mxCell id="IAmljEJbCYCv3zX4TJSq-8" value="" style="edgeStyle=orthogonalEdgeStyle;rounded=0;orthogonalLoop=1;jettySize=auto;html=1;" edge="1" parent="1" source="IAmljEJbCYCv3zX4TJSq-5" target="IAmljEJbCYCv3zX4TJSq-7">
          <mxGeometry relative="1" as="geometry" />
        </mxCell>
        <mxCell id="IAmljEJbCYCv3zX4TJSq-5" value="Battery" style="rounded=1;whiteSpace=wrap;html=1;" vertex="1" parent="1">
          <mxGeometry x="360" y="240" width="120" height="60" as="geometry" />
        </mxCell>
        <mxCell id="IAmljEJbCYCv3zX4TJSq-10" value="" style="edgeStyle=orthogonalEdgeStyle;rounded=0;orthogonalLoop=1;jettySize=auto;html=1;" edge="1" parent="1" source="IAmljEJbCYCv3zX4TJSq-7" target="IAmljEJbCYCv3zX4TJSq-9">
          <mxGeometry relative="1" as="geometry" />
        </mxCell>
        <mxCell id="IAmljEJbCYCv3zX4TJSq-7" value="Boost Converter" style="whiteSpace=wrap;html=1;rounded=1;" vertex="1" parent="1">
          <mxGeometry x="360" y="330" width="120" height="60" as="geometry" />
        </mxCell>
        <mxCell id="IAmljEJbCYCv3zX4TJSq-12" value="" style="edgeStyle=orthogonalEdgeStyle;rounded=0;orthogonalLoop=1;jettySize=auto;html=1;" edge="1" parent="1" source="IAmljEJbCYCv3zX4TJSq-9" target="IAmljEJbCYCv3zX4TJSq-11">
          <mxGeometry relative="1" as="geometry" />
        </mxCell>
        <mxCell id="IAmljEJbCYCv3zX4TJSq-9" value="MCU (Arduino Nano)" style="whiteSpace=wrap;html=1;rounded=1;" vertex="1" parent="1">
          <mxGeometry x="360" y="430" width="120" height="60" as="geometry" />
        </mxCell>
        <mxCell id="IAmljEJbCYCv3zX4TJSq-11" value="LoRa RFM92" style="whiteSpace=wrap;html=1;rounded=1;" vertex="1" parent="1">
          <mxGeometry x="180" y="430" width="120" height="60" as="geometry" />
        </mxCell>
        <mxCell id="IAmljEJbCYCv3zX4TJSq-20" style="edgeStyle=orthogonalEdgeStyle;rounded=0;orthogonalLoop=1;jettySize=auto;html=1;entryX=0.5;entryY=1;entryDx=0;entryDy=0;" edge="1" parent="1" source="IAmljEJbCYCv3zX4TJSq-13" target="IAmljEJbCYCv3zX4TJSq-9">
          <mxGeometry relative="1" as="geometry" />
        </mxCell>
        <mxCell id="IAmljEJbCYCv3zX4TJSq-13" value="Sensor 2" style="ellipse;whiteSpace=wrap;html=1;aspect=fixed;" vertex="1" parent="1">
          <mxGeometry x="380" y="580" width="80" height="80" as="geometry" />
        </mxCell>
        <mxCell id="IAmljEJbCYCv3zX4TJSq-22" style="edgeStyle=orthogonalEdgeStyle;rounded=0;orthogonalLoop=1;jettySize=auto;html=1;entryX=1;entryY=0.5;entryDx=0;entryDy=0;" edge="1" parent="1" source="IAmljEJbCYCv3zX4TJSq-14" target="IAmljEJbCYCv3zX4TJSq-9">
          <mxGeometry relative="1" as="geometry" />
        </mxCell>
        <mxCell id="IAmljEJbCYCv3zX4TJSq-14" value="Sensor 4" style="ellipse;whiteSpace=wrap;html=1;aspect=fixed;" vertex="1" parent="1">
          <mxGeometry x="590" y="420" width="80" height="80" as="geometry" />
        </mxCell>
        <mxCell id="IAmljEJbCYCv3zX4TJSq-21" style="edgeStyle=orthogonalEdgeStyle;rounded=0;orthogonalLoop=1;jettySize=auto;html=1;exitX=0;exitY=0;exitDx=0;exitDy=0;entryX=0.75;entryY=1;entryDx=0;entryDy=0;" edge="1" parent="1" source="IAmljEJbCYCv3zX4TJSq-15" target="IAmljEJbCYCv3zX4TJSq-9">
          <mxGeometry relative="1" as="geometry" />
        </mxCell>
        <mxCell id="IAmljEJbCYCv3zX4TJSq-15" value="Sensor 3" style="ellipse;whiteSpace=wrap;html=1;aspect=fixed;rotation=0;" vertex="1" parent="1">
          <mxGeometry x="540" y="560" width="80" height="80" as="geometry" />
        </mxCell>
        <mxCell id="IAmljEJbCYCv3zX4TJSq-24" style="edgeStyle=orthogonalEdgeStyle;rounded=0;orthogonalLoop=1;jettySize=auto;html=1;entryX=0.25;entryY=1;entryDx=0;entryDy=0;" edge="1" parent="1" source="IAmljEJbCYCv3zX4TJSq-23" target="IAmljEJbCYCv3zX4TJSq-9">
          <mxGeometry relative="1" as="geometry">
            <Array as="points">
              <mxPoint x="320" y="535" />
              <mxPoint x="390" y="535" />
            </Array>
          </mxGeometry>
        </mxCell>
        <mxCell id="IAmljEJbCYCv3zX4TJSq-23" value="Sensor 1" style="ellipse;whiteSpace=wrap;html=1;aspect=fixed;" vertex="1" parent="1">
          <mxGeometry x="280" y="580" width="80" height="80" as="geometry" />
        </mxCell>
      </root>
    </mxGraphModel>
  </diagram>
</mxfile>
